<mxfile host="Electron" agent="Mozilla/5.0 (Windows NT 10.0; Win64; x64) AppleWebKit/537.36 (KHTML, like Gecko) draw.io/24.7.5 Chrome/126.0.6478.183 Electron/31.3.0 Safari/537.36" version="24.7.5">
  <diagram name="Seite-1" id="8DbfNx0mtauCQjF1prSr">
    <mxGraphModel dx="844" dy="496" grid="1" gridSize="10" guides="1" tooltips="1" connect="1" arrows="1" fold="1" page="1" pageScale="1" pageWidth="827" pageHeight="1169" math="0" shadow="0">
      <root>
        <mxCell id="0" />
        <mxCell id="1" parent="0" />
        <mxCell id="zOzOwpDs2T06kILq5HH2-13" value="Client Side" style="swimlane;whiteSpace=wrap;html=1;rounded=1;" vertex="1" parent="1">
          <mxGeometry x="40" y="40" width="240" height="260" as="geometry" />
        </mxCell>
        <mxCell id="zOzOwpDs2T06kILq5HH2-14" value="Front-End" style="swimlane;whiteSpace=wrap;html=1;rounded=1;" vertex="1" parent="zOzOwpDs2T06kILq5HH2-13">
          <mxGeometry x="100" y="40" width="120" height="200" as="geometry" />
        </mxCell>
        <mxCell id="zOzOwpDs2T06kILq5HH2-16" value="Presentation" style="rounded=1;whiteSpace=wrap;html=1;fillColor=#d5e8d4;strokeColor=#82b366;" vertex="1" parent="zOzOwpDs2T06kILq5HH2-14">
          <mxGeometry x="20" y="40" width="80" height="120" as="geometry" />
        </mxCell>
        <mxCell id="zOzOwpDs2T06kILq5HH2-17" style="edgeStyle=orthogonalEdgeStyle;rounded=0;orthogonalLoop=1;jettySize=auto;html=1;entryX=0;entryY=0.5;entryDx=0;entryDy=0;" edge="1" parent="zOzOwpDs2T06kILq5HH2-13" source="zOzOwpDs2T06kILq5HH2-15" target="zOzOwpDs2T06kILq5HH2-16">
          <mxGeometry relative="1" as="geometry" />
        </mxCell>
        <mxCell id="zOzOwpDs2T06kILq5HH2-15" value="Browser" style="image;aspect=fixed;html=1;points=[];align=center;fontSize=12;image=img/lib/azure2/general/Browser.svg;" vertex="1" parent="zOzOwpDs2T06kILq5HH2-13">
          <mxGeometry x="20" y="116" width="60" height="48" as="geometry" />
        </mxCell>
        <mxCell id="zOzOwpDs2T06kILq5HH2-18" value="Server Side" style="swimlane;whiteSpace=wrap;html=1;rounded=1;" vertex="1" parent="1">
          <mxGeometry x="400" y="40" width="280" height="260" as="geometry" />
        </mxCell>
        <mxCell id="zOzOwpDs2T06kILq5HH2-19" value="Back-End" style="swimlane;whiteSpace=wrap;html=1;rounded=1;" vertex="1" parent="zOzOwpDs2T06kILq5HH2-18">
          <mxGeometry x="20" y="40" width="240" height="200" as="geometry" />
        </mxCell>
        <mxCell id="zOzOwpDs2T06kILq5HH2-24" style="edgeStyle=orthogonalEdgeStyle;rounded=0;orthogonalLoop=1;jettySize=auto;html=1;exitX=1;exitY=0.25;exitDx=0;exitDy=0;entryX=0;entryY=0.25;entryDx=0;entryDy=0;dashed=1;" edge="1" parent="zOzOwpDs2T06kILq5HH2-19" source="zOzOwpDs2T06kILq5HH2-20" target="zOzOwpDs2T06kILq5HH2-23">
          <mxGeometry relative="1" as="geometry" />
        </mxCell>
        <mxCell id="zOzOwpDs2T06kILq5HH2-20" value="Business Logic" style="rounded=1;whiteSpace=wrap;html=1;fillColor=#fff2cc;strokeColor=#d6b656;" vertex="1" parent="zOzOwpDs2T06kILq5HH2-19">
          <mxGeometry x="20" y="40" width="80" height="120" as="geometry" />
        </mxCell>
        <mxCell id="zOzOwpDs2T06kILq5HH2-25" style="edgeStyle=orthogonalEdgeStyle;rounded=0;orthogonalLoop=1;jettySize=auto;html=1;exitX=0;exitY=0.75;exitDx=0;exitDy=0;entryX=1;entryY=0.75;entryDx=0;entryDy=0;dashed=1;" edge="1" parent="zOzOwpDs2T06kILq5HH2-19" source="zOzOwpDs2T06kILq5HH2-23" target="zOzOwpDs2T06kILq5HH2-20">
          <mxGeometry relative="1" as="geometry" />
        </mxCell>
        <mxCell id="zOzOwpDs2T06kILq5HH2-23" value="Data Access" style="rounded=1;whiteSpace=wrap;html=1;fillColor=#f8cecc;strokeColor=#b85450;" vertex="1" parent="zOzOwpDs2T06kILq5HH2-19">
          <mxGeometry x="140" y="40" width="80" height="120" as="geometry" />
        </mxCell>
        <mxCell id="zOzOwpDs2T06kILq5HH2-29" value="DBpedia" style="sketch=0;outlineConnect=0;fontColor=#232F3E;gradientColor=none;fillColor=#232F3D;strokeColor=none;dashed=0;verticalLabelPosition=bottom;verticalAlign=top;align=center;html=1;fontSize=12;fontStyle=0;aspect=fixed;pointerEvents=1;shape=mxgraph.aws4.traditional_server;" vertex="1" parent="1">
          <mxGeometry x="720" y="141" width="45" height="78" as="geometry" />
        </mxCell>
        <mxCell id="zOzOwpDs2T06kILq5HH2-30" style="edgeStyle=orthogonalEdgeStyle;rounded=0;orthogonalLoop=1;jettySize=auto;html=1;dashed=1;" edge="1" parent="1" source="zOzOwpDs2T06kILq5HH2-23" target="zOzOwpDs2T06kILq5HH2-29">
          <mxGeometry relative="1" as="geometry" />
        </mxCell>
        <mxCell id="zOzOwpDs2T06kILq5HH2-31" style="edgeStyle=orthogonalEdgeStyle;rounded=0;orthogonalLoop=1;jettySize=auto;html=1;exitX=1;exitY=0.25;exitDx=0;exitDy=0;entryX=0;entryY=0.25;entryDx=0;entryDy=0;dashed=1;" edge="1" parent="1" source="zOzOwpDs2T06kILq5HH2-16" target="zOzOwpDs2T06kILq5HH2-20">
          <mxGeometry relative="1" as="geometry" />
        </mxCell>
        <mxCell id="zOzOwpDs2T06kILq5HH2-33" value="API Request" style="edgeLabel;html=1;align=center;verticalAlign=middle;resizable=0;points=[];" vertex="1" connectable="0" parent="zOzOwpDs2T06kILq5HH2-31">
          <mxGeometry x="-0.0459" y="1" relative="1" as="geometry">
            <mxPoint as="offset" />
          </mxGeometry>
        </mxCell>
        <mxCell id="zOzOwpDs2T06kILq5HH2-32" style="edgeStyle=orthogonalEdgeStyle;rounded=0;orthogonalLoop=1;jettySize=auto;html=1;exitX=0;exitY=0.75;exitDx=0;exitDy=0;entryX=1;entryY=0.75;entryDx=0;entryDy=0;dashed=1;" edge="1" parent="1" source="zOzOwpDs2T06kILq5HH2-20" target="zOzOwpDs2T06kILq5HH2-16">
          <mxGeometry relative="1" as="geometry" />
        </mxCell>
        <mxCell id="zOzOwpDs2T06kILq5HH2-34" value="JSON Response" style="edgeLabel;html=1;align=center;verticalAlign=middle;resizable=0;points=[];" vertex="1" connectable="0" parent="zOzOwpDs2T06kILq5HH2-32">
          <mxGeometry x="0.0753" y="-1" relative="1" as="geometry">
            <mxPoint as="offset" />
          </mxGeometry>
        </mxCell>
      </root>
    </mxGraphModel>
  </diagram>
</mxfile>
